<?xml version="1.0" standalone="no"?><!DOCTYPE svg PUBLIC "-//W3C//DTD SVG 1.1//EN" "http://www.w3.org/Graphics/SVG/1.1/DTD/svg11.dtd"><svg t="1602149716488" class="icon" viewBox="0 0 1024 1024" version="1.1" xmlns="http://www.w3.org/2000/svg" p-id="2904" xmlns:xlink="http://www.w3.org/1999/xlink" width="200" height="200"><defs><style type="text/css"></style></defs><path d="M64 353.792l3.008-8.896c8.96-29.696 41.984-47.552 74.944-38.592 15.04 5.952 27.008 14.848 33.024 29.696A57.984 57.984 0 0 1 168.96 401.28c-3.008 0-3.008 2.944-6.016 5.952 44.992 26.752 87.04 53.44 128.96 77.248 15.04 8.896 33.024 20.736 48 29.696 6.016 5.952 14.976 2.944 17.984-3.008l3.008-2.944c51.008-89.152 98.944-178.24 149.952-270.336a58.688 58.688 0 0 1-35.968-53.44 60.16 60.16 0 0 1 17.92-44.544c24.064-23.808 60.032-20.8 84.032 0l3.008 2.944c24 29.696 14.976 65.344-24 92.096 11.968 23.744 24 47.488 38.976 68.288 35.968 65.344 72 130.752 107.968 193.088 8.96 14.848 14.976 17.856 27.008 8.96 56.96-32.704 110.912-68.352 167.936-101.056l8.96-5.888c-11.968-8.96-17.984-23.808-20.992-38.656-3.008-32.64 24-59.392 54.016-62.4 26.944-2.944 50.944 14.912 59.968 41.6 0 8.96 3.008 11.904 3.008 14.848v20.8c-8.96 29.696-30.016 47.552-62.976 47.552 0 2.944-3.008 5.952-3.008 11.904l-99.008 332.672c-2.944 14.848-8.96 17.792-23.936 17.792H252.928c-14.976 0-20.992-2.944-24-17.792-27.008-89.088-53.952-178.24-77.952-270.336-6.016-23.744-14.976-47.488-20.992-74.24a68.48 68.48 0 0 1-56.96-29.696c-3.008-8.96-6.016-11.904-9.024-17.856v-20.8z m479.68 496h264.576c24 0 45.056 17.408 45.056 40.64 0 20.288-15.04 40.576-36.032 43.456H279.04a45.12 45.12 0 0 1-42.048-28.992c-6.016-17.408 0-37.696 15.04-46.4a52.16 52.16 0 0 1 30.08-8.64c87.168-2.944 174.336 0 261.568 0z" fill="#FBC948" p-id="2905"></path></svg>